<svg width="505.690185546875px" height="252.79999999999998px" xmlns="http://www.w3.org/2000/svg" viewBox="-2.8450927734375 -51.39999999999999 505.690185546875 252.79999999999998" style="background: rgba(0, 0, 0, 0);" preserveAspectRatio="xMidYMid"><defs><filter id="editing-extrude-glow"><feFlood flood-color="#333333" result="flood-1"></feFlood><feMorphology operator="erode" radius="1" in="SourceAlpha" result="erode"></feMorphology><feComposite operator="in" in="flood-1" in2="erode" result="comp1"></feComposite><feConvolveMatrix order="3,3" divisor="1" in="comp1" result="convolve" kernelMatrix="0 0 0 1 1 1 0 0 0"></feConvolveMatrix><feOffset dx="-3" dy="0" in="convolve" result="extrude"></feOffset><feComposite operator="in" in="flood-1" in2="extrude" result="comp-extrude"></feComposite><feFlood flood-color="#000000" result="flood-2"></feFlood><feComposite operator="in" in="flood-2" in2="SourceAlpha" result="comp2"></feComposite><feMorphology operator="dilate" radius="1" in="comp2" result="dilate"></feMorphology><feOffset dx="-4.5" dy="0" in="dilate" result="offset"></feOffset><feGaussianBlur in="offset" stdDeviation="5.8" result="blur"></feGaussianBlur><feComponentTransfer in="blur" result="shadow"><feFuncA type="linear" slope="0.8" intercept="-0.2"></feFuncA></feComponentTransfer><feMerge><feMergeNode in="shadow"></feMergeNode><feMergeNode in="comp-extrude"></feMergeNode><feMergeNode in="SourceGraphic"></feMergeNode></feMerge></filter></defs><g filter="url(#editing-extrude-glow)"><g transform="translate(76.12690699100494, 126.37499809265137)"><path d="M63.94-22.64L63.94-22.64L63.94-22.64Q66.74-19.11 66.74-12.27L66.74-12.27L66.74-12.27Q66.74-5.44 61.52-1.25L61.52-1.25L61.52-1.25Q56.30 2.94 47.19 2.94L47.19 2.94L47.19 2.94Q41.89 2.94 33.66 1.76L33.66 1.76L33.66 1.76Q17.49-0.73 12.86-0.73L12.86-0.73L12.86-0.73Q8.23-0.73 6.32-0.51L6.32-0.51L6.32-0.51Q4.41-0.29 1.32 0L1.32 0L19.11-97.02L51.30-97.02L36.60-16.17L36.60-16.17Q38.51-15.88 40.28-15.88L40.28-15.88L43.95-15.88L43.95-15.88Q56.30-15.88 63.94-22.64ZM89.08 0L72.18 0L98.78-97.02L129.51-97.02L136.27-41.60L163.61-97.02L189.34-97.02L191.98-24.40L191.98-24.40Q192.57-10.00 199.63-5.59L199.63-5.59L199.63-5.59Q198.01-2.65 193.31 0.15L193.31 0.15L193.31 0.15Q188.60 2.94 182.35 2.94L182.35 2.94L182.35 2.94Q176.11 2.94 172.43 1.18L172.43 1.18L172.43 1.18Q168.76-0.59 166.70-3.53L166.70-3.53L166.70-3.53Q163.02-8.82 163.02-18.96L163.02-18.96L163.02-64.39L134.06 0L115.84 0L105.55-66.00L89.08 0ZM208.00-91.14L208.00-91.14L208.00-91.14Q210.06-95.26 214.55-97.53L214.55-97.53L214.55-97.53Q219.03-99.81 225.20-99.81L225.20-99.81L225.20-99.81Q234.91-99.81 240.71-92.83L240.71-92.83L240.71-92.83Q246.52-85.85 246.52-70.56L246.52-70.56L246.52-18.08L280.18-96.87L297.53-96.87L301.50-22.49L301.06-18.23L336.04-96.87L356.18-96.87L309.14 0L277.83 0L274.89-44.69L255.49 0L220.06 0L215.65-70.56L215.65-70.56Q215.21-78.50 213.08-83.72L213.08-83.72L213.08-83.72Q210.94-88.93 208.00-91.14Z" fill="#eb6c6c"></path></g></g><style>text {
  font-size: 64px;
  font-family: Arial Black;
  dominant-baseline: central;
  text-anchor: middle;
}</style></svg>